<?xml version="1.0" encoding="UTF-8" standalone="yes"?>
<!DOCTYPE svg PUBLIC "-//W3C//DTD SVG 1.1//EN" "http://www.w3.org/Graphics/SVG/1.1/DTD/svg11.dtd">

<svg width="500" height="500" viewBox="0 0 500 500" xmlns="http://www.w3.org/2000/svg" xmlns:xlink="http://www.w3.org/1999/xlink" version="1.1" baseProfile="full">
    <g transform="scale(1,-1) translate(0,-500)">
        <path d="M 224.840600 11.715200 L 229.105700 13.753600 L 233.328200 15.971900 L 237.506300 18.367600 L 241.638700 20.938200 L 245.724100 23.681200 L 249.761000 26.594200 L 253.748000 29.674700 L 257.683700 32.920200 L 261.566800 36.328100 L 265.395800 39.896100 L 272.885900 47.502300 L 280.142700 55.718800 L 287.155200 64.525900 L 293.911900 73.903600 L 300.401700 83.832100 L 306.613400 94.291500 L 312.535600 105.262100 L 318.157300 116.723900 L 323.467000 128.657200 L 328.453600 141.042000 L 333.105900 153.858600 L 337.412600 167.087000 L 341.362500 180.707400 L 344.944300 194.700100 L 348.146800 209.045000 L 350.958800 223.722500 L 353.369000 238.712500 L 355.366200 253.995400 L 356.939100 269.551200 L 357.658200 279.546600 L 355.570800 280.490100 L 349.574200 283.962500 L 346.088500 286.408900 L 222.913900 286.408900 L 222.913900 10.884900 Z" transform="scale(1.000000,1.000000) translate(-109.000000,4.000000)" fill="#3792c0" opacity="1.000000"></path>
        <path d="M 242.537700 1.777500 L 247.616200 2.163700 L 252.620800 2.799600 L 257.545200 3.679000 L 262.383300 4.795700 L 267.128700 6.143200 L 271.775100 7.715400 L 276.316300 9.505900 L 280.745900 11.508500 L 285.057700 13.716800 L 289.245400 16.124700 L 293.302700 18.725800 L 297.223400 21.513800 L 301.001000 24.482500 L 304.629500 27.625600 L 308.102400 30.936700 L 311.413600 34.409600 L 314.556600 38.038100 L 317.525300 41.815800 L 320.313300 45.736400 L 322.914400 49.793700 L 325.322300 53.981400 L 327.530700 58.293300 L 329.533300 62.722900 L 331.323800 67.264000 L 332.896000 71.910400 L 334.243500 76.655800 L 335.360100 81.493900 L 336.239500 86.418400 L 336.875500 91.423000 L 337.261600 96.501400 L 337.391800 101.647400 L 337.391800 142.833100 L 337.261600 147.979100 L 336.875500 153.057500 L 336.239500 158.062100 L 335.360100 162.986600 L 334.243500 167.824700 L 332.896000 172.570000 L 331.323800 177.216500 L 329.533300 181.757600 L 327.530700 186.187200 L 325.322300 190.499000 L 322.914400 194.686700 L 320.313300 198.744100 L 319.626500 199.709900 L 318.972000 198.696100 L 315.947300 194.758300 L 312.457400 190.846900 L 310.912100 189.301700 L 224.097900 97.851800 L 210.774600 84.137800 L 198.478600 72.074400 L 187.209800 61.661600 L 176.968200 52.899400 L 167.955700 45.954600 L 160.374400 40.994100 L 157.120400 39.257900 L 154.224200 38.017700 L 151.685800 37.273700 L 149.505100 37.025600 L 145.036200 37.521700 L 140.058100 39.009800 L 134.570800 41.490100 L 128.574200 44.962500 L 122.876100 48.961700 L 118.284300 53.022300 L 114.798700 57.144400 L 112.419400 61.328000 L 110.896100 65.823200 L 109.416700 72.285100 L 107.981300 80.713700 L 106.589700 91.108900 L 105.391200 102.724600 L 104.535200 114.814300 L 104.021600 127.378100 L 103.850400 140.416000 L 104.039100 143.999300 L 104.605400 147.514500 L 105.549300 150.961600 L 106.870600 154.340700 L 108.569500 157.651800 L 110.645900 160.894800 L 113.099800 164.069800 L 115.931300 167.176700 L 118.991100 170.057600 L 122.129800 172.554300 L 125.347600 174.667000 L 128.644400 176.395500 L 132.020200 177.739900 L 135.475000 178.700200 L 139.008900 179.276300 L 142.621800 179.468400 L 145.923000 179.071100 L 148.873000 177.879300 L 151.471800 175.892900 L 153.719400 173.111900 L 155.615800 169.536300 L 157.161100 165.166200 L 158.355100 160.001500 L 159.198000 154.042200 L 159.619400 149.687500 L 160.787100 140.661800 L 162.042600 133.111300 L 163.385900 127.035700 L 164.817000 122.435100 L 166.423700 119.054900 L 168.293800 116.640400 L 170.427300 115.191800 L 172.824100 114.708900 L 174.106000 114.994200 L 175.844400 115.850300 L 180.690800 119.274400 L 187.012200 124.665100 L 194.457500 131.706500 L 283.659800 220.066000 L 289.129600 225.342600 L 291.148800 227.135600 L 289.245400 228.355800 L 285.057700 230.763600 L 280.745900 232.972000 L 276.316300 234.974600 L 271.775100 236.765100 L 267.128700 238.337300 L 262.383300 239.684800 L 257.545200 240.801500 L 252.620800 241.680900 L 247.616200 242.316800 L 242.537700 242.703000 L 237.391800 242.833100 L 16.185800 242.833100 L 14.652200 242.755700 L 13.162800 242.528400 L 10.347200 241.654300 L 7.799200 240.271300 L 5.579200 238.439700 L 3.747600 236.219700 L 2.364600 233.671800 L 1.490600 230.856100 L 1.263300 229.366800 L 1.185800 227.833100 L 1.185800 1.647400 L 237.391800 1.647400 Z" transform="scale(1.000000,1.000000) translate(112.000000,243.000000)" fill="#3792c0" opacity="1.000000"></path>
    </g>
</svg>